# xmcd
#
# Track frame offsets: 
#        182
#        3025
#        13957
#        23917
#        34775
#        44630
#        65817
#        80740
#        100332
#        114110
#        124170
#        132672
#        146170
#        163540
#
# Disc length: 2433 seconds
#
# Revision: 1
# Processed by: cddbd v1.5.1PL2 Copyright (c) Steve Scherf et al.
# Submitted via: ExactAudioCopy v0.95b4
#
DISCID=c4097f0e
DTITLE=Spielfreunde Uerdingen - Jubiläumsklänge
DYEAR=1900
DGENRE=Marsch/Polk
TTITLE0=Lockmarsch
TTITLE1=Blinkende Spaten
TTITLE2=Freiheitsglocken
TTITLE3=Juventas-Marsch
TTITLE4=Military Escort
TTITLE5=Egerländer Volksweisen
TTITLE6=In treuer Kameradschaft
TTITLE7=Badenweiler Marsch
TTITLE8=Mit vereinten Kräften
TTITLE9=Sousa Medley
TTITLE10=Fehrbelliner Reitermarsch
TTITLE11=Musketier-Marsch
TTITLE12=Goldene Trompeten
TTITLE13=Zum Städtele hinaus
EXTD=
EXTT0=
EXTT1=
EXTT2=
EXTT3=
EXTT4=
EXTT5=
EXTT6=
EXTT7=
EXTT8=
EXTT9=
EXTT10=
EXTT11=
EXTT12=
EXTT13=
PLAYORDER=
